<?xml version="1.0" standalone="no"?>
<!DOCTYPE svg PUBLIC "-//W3C//DTD SVG 20010904//EN"
 "http://www.w3.org/TR/2001/REC-SVG-20010904/DTD/svg10.dtd">
<svg version="1.0" xmlns="http://www.w3.org/2000/svg"
 width="3508.000000pt" height="2480.000000pt" viewBox="0 0 3508.000000 2480.000000"
 preserveAspectRatio="xMidYMid meet">

<g transform="translate(0.000000,2480.000000) scale(0.100000,-0.100000)"
fill="#000000" stroke="none">
<path d="M25637 14598 c-15 -12 -15 -18 4 -88 11 -41 28 -118 38 -170 10 -52
32 -165 49 -250 17 -85 38 -207 47 -270 9 -63 20 -144 26 -180 12 -88 29 -308
29 -386 0 -48 -3 -64 -14 -64 -18 0 -26 22 -26 69 0 20 -5 42 -11 48 -6 6 -14
44 -17 84 -6 59 -10 74 -24 77 -14 3 -18 -3 -18 -27 0 -17 -4 -31 -10 -31 -5
0 -10 11 -10 25 0 18 -10 31 -32 45 -42 25 -46 25 -50 -2 -2 -17 -11 -24 -30
-26 -20 -2 -28 -9 -28 -23 0 -17 -7 -19 -60 -19 -53 0 -60 -2 -60 -20 0 -11
-5 -20 -10 -20 -6 0 -18 9 -27 20 -14 16 -30 20 -75 20 -45 0 -63 -5 -78 -20
-23 -23 -40 -26 -40 -6 0 11 -7 12 -27 7 -32 -9 -43 -31 -14 -31 11 0 23 -4
26 -10 3 -5 15 -10 25 -10 10 0 25 -7 34 -15 8 -8 24 -15 36 -15 12 0 28 -7
36 -15 9 -8 24 -15 34 -15 10 0 20 -7 24 -15 3 -8 15 -15 26 -15 12 0 28 -7
36 -15 9 -8 24 -15 34 -15 10 0 20 -7 24 -15 3 -8 11 -15 18 -15 7 0 53 -20
103 -45 49 -25 95 -45 102 -45 6 0 13 -3 15 -7 4 -11 67 -43 82 -43 6 0 19 -8
28 -17 29 -31 42 -39 184 -113 76 -40 168 -90 204 -110 125 -71 199 -110 211
-110 8 0 10 20 5 73 -3 39 -10 122 -15 182 -5 61 -12 130 -15 155 -3 25 -10
106 -16 180 -6 74 -15 169 -20 210 -6 41 -19 149 -31 240 -19 148 -37 263 -86
530 -8 47 -29 141 -47 210 l-31 125 -270 3 c-206 2 -275 -1 -288 -10z m203
-1494 c0 -8 -4 -12 -10 -9 -5 3 -10 13 -10 21 0 8 5 12 10 9 6 -3 10 -13 10
-21z"/>
<path d="M17451 13284 c-10 -11 -33 -15 -90 -15 -141 1 -331 -11 -331 -20 0
-5 -7 -9 -15 -9 -8 0 -15 5 -15 10 0 6 -11 10 -25 10 -14 0 -25 -4 -25 -10 0
-5 -18 -10 -40 -10 -37 0 -46 -6 -103 -67 -34 -36 -98 -93 -142 -125 -44 -32
-85 -62 -91 -67 -6 -5 -20 -12 -32 -15 -12 -4 -22 -12 -22 -17 0 -5 -6 -9 -14
-9 -7 0 -19 -7 -26 -15 -7 -8 -23 -15 -36 -15 -12 0 -26 -5 -29 -10 -7 -11
-88 -50 -105 -50 -5 0 -18 -4 -28 -9 -55 -27 -126 -53 -205 -76 -26 -8 -71
-21 -100 -30 -28 -9 -72 -18 -97 -22 -25 -3 -50 -9 -55 -14 -6 -4 -31 -11 -55
-14 -25 -4 -54 -11 -65 -16 -20 -9 -116 -24 -255 -39 -41 -5 -106 -13 -145
-19 -38 -6 -107 -11 -152 -11 -45 0 -84 -4 -88 -9 -6 -11 42 -28 116 -41 311
-54 723 -163 959 -255 107 -42 271 -126 350 -180 270 -184 534 -484 606 -689
22 -61 51 -218 64 -341 29 -291 33 -511 37 -2291 l4 -1832 -58 -6 c-32 -3
-321 -8 -643 -11 -1711 -15 -2121 -20 -2770 -31 -302 -5 -357 -4 -367 8 -10
11 -13 492 -16 2029 -3 1837 -5 2024 -20 2129 -43 290 -108 464 -199 533 -101
78 -241 120 -499 153 -154 19 -494 23 -512 5 -9 -9 -13 -563 -15 -2437 -2
-1914 -5 -2426 -15 -2429 -6 -2 -291 -9 -632 -14 -606 -10 -620 -10 -651 9
-40 25 -47 25 -33 -1 14 -26 278 -357 330 -414 20 -22 69 -78 109 -125 166
-195 575 -595 840 -821 161 -138 445 -360 584 -457 50 -35 117 -81 149 -103
33 -23 63 -37 67 -33 4 5 44 95 88 199 44 105 91 215 105 245 13 30 48 116 77
190 73 186 149 372 158 389 16 29 28 20 64 -51 71 -139 169 -323 328 -613 48
-88 148 -272 222 -410 74 -137 145 -268 158 -290 12 -22 52 -92 87 -157 36
-64 73 -118 82 -120 17 -3 1342 6 2129 15 305 4 452 2 450 -4 -6 -17 -86 -57
-668 -331 -52 -25 -147 -70 -210 -101 -114 -55 -280 -129 -332 -149 -16 -5
-28 -15 -28 -22 0 -15 64 -39 115 -42 22 -2 57 -10 77 -18 21 -9 51 -16 68
-16 17 0 47 -7 67 -15 19 -8 49 -15 66 -15 17 0 56 -6 86 -14 31 -8 88 -19
126 -25 163 -26 203 -32 255 -43 30 -6 96 -14 145 -18 50 -4 117 -12 150 -18
156 -29 363 -37 925 -37 670 0 902 4 944 16 17 5 92 14 166 20 74 5 166 17
204 26 38 9 101 17 140 18 40 1 82 7 94 14 13 7 67 18 120 26 53 8 120 19 147
25 28 6 93 20 145 31 52 11 113 25 135 31 22 5 63 14 90 20 28 5 64 14 80 20
17 6 44 12 60 15 93 13 100 31 23 60 -172 66 -1250 557 -1249 569 1 10 129 14
1546 38 556 10 1020 21 1031 26 12 5 40 43 64 87 105 192 468 892 643 1241
124 248 197 381 206 380 7 -2 21 -23 31 -48 9 -25 48 -119 85 -210 37 -91 87
-212 110 -270 91 -224 247 -586 259 -598 13 -13 13 -14 281 182 61 44 146 108
190 143 44 35 115 92 158 126 77 61 181 149 342 291 130 115 412 396 473 471
90 110 248 297 313 370 59 65 197 237 210 262 7 13 10 26 6 29 -3 3 -83 -3
-179 -14 -305 -36 -376 -43 -520 -52 -77 -5 -146 -14 -152 -20 -14 -14 -1288
-14 -1302 0 -6 6 -73 15 -149 20 -267 18 -561 53 -840 101 -334 57 -805 171
-940 228 -11 5 -49 18 -85 30 -95 30 -130 43 -283 106 -581 236 -1007 539
-1229 875 -44 68 -134 238 -165 315 -98 240 -154 457 -202 770 -49 323 -61
549 -61 1147 0 416 1 448 18 456 9 5 251 12 537 16 286 3 927 11 1425 17 498
6 1113 14 1368 17 255 4 472 4 483 0 19 -7 19 -25 19 -787 0 -816 3 -889 47
-1076 50 -217 164 -328 388 -381 112 -26 449 -27 545 -1 181 49 284 110 384
226 38 45 99 154 121 216 54 153 71 346 56 625 -27 483 -127 795 -317 983 -93
93 -339 239 -729 431 -194 96 -261 128 -450 216 -38 18 -106 49 -150 70 -44
21 -109 50 -145 65 -36 15 -96 42 -135 59 -38 18 -104 47 -145 65 -41 19 -103
46 -137 62 -35 16 -65 29 -67 29 -3 0 -35 14 -73 31 -135 61 -149 67 -210 93
-67 28 -149 64 -228 101 -27 12 -88 40 -135 60 -47 21 -125 57 -175 80 -49 23
-115 54 -145 68 -30 14 -91 42 -135 62 -280 130 -660 318 -743 367 -34 21 -68
38 -76 38 -7 0 -19 7 -26 15 -7 8 -16 15 -21 15 -7 0 -84 43 -156 88 -6 4 -57
40 -112 80 -154 111 -264 209 -399 355 l-52 57 -250 0 -250 0 0 25 c0 23 -4
25 -45 25 -41 0 -45 -2 -45 -25 0 -23 -4 -25 -41 -25 -38 0 -41 2 -37 24 4 21
1 24 -40 30 -25 3 -71 6 -103 6 -59 0 -59 0 -59 -30 0 -28 -2 -30 -40 -30 -38
0 -40 1 -40 31 l0 31 -127 -2 c-71 -2 -192 -2 -270 -1 -120 1 -143 3 -143 16
0 20 -51 19 -69 -1z m-1473 -661 c3 -10 -13 -13 -57 -13 -50 0 -59 3 -54 15 7
20 104 17 111 -2z m225 -13 c20 0 37 -5 37 -10 0 -8 -51 -9 -123 -1 -5 1 -5 6
-1 12 3 6 16 8 28 5 11 -3 38 -6 59 -6z"/>
</g>
</svg>
